<?xml version="1.0" encoding="utf-8"?>
<!-- Generator: Adobe Illustrator 19.2.1, SVG Export Plug-In . SVG Version: 6.00 Build 0)  -->
<svg version="1.1" id="Layer_1" xmlns="http://www.w3.org/2000/svg" xmlns:xlink="http://www.w3.org/1999/xlink" x="0px" y="0px"
	 viewBox="0 0 100 100" style="enable-background:new 0 0 100 100;" xml:space="preserve">
<style type="text/css">
	.st0{fill:#0E5C11;}
</style>
<g>
	<g>
		<path class="st0" d="M90.2,10.5c-26.6,0-53.2,0-79.8,0c-9.7,0-9.7,15,0,15c26.6,0,53.2,0,79.8,0C99.9,25.5,99.9,10.5,90.2,10.5
			L90.2,10.5z"/>
	</g>
</g>
<g>
	<g>
		<path class="st0" d="M89.8,75c-26.6,0-53.2,0-79.8,0c-9.7,0-9.7,15,0,15c26.6,0,53.2,0,79.8,0C99.5,90,99.5,75,89.8,75L89.8,75z"
			/>
	</g>
</g>
<g>
	<g>
		<path class="st0" d="M90.2,43.5c-26.6,0-53.2,0-79.8,0c-9.7,0-9.7,15,0,15c26.6,0,53.2,0,79.8,0C99.9,58.5,99.9,43.5,90.2,43.5
			L90.2,43.5z"/>
	</g>
</g>
</svg>
