<?xml version="1.0" encoding="utf-8"?>
<!-- Generator: Adobe Illustrator 16.0.0, SVG Export Plug-In . SVG Version: 6.00 Build 0)  -->
<!DOCTYPE svg PUBLIC "-//W3C//DTD SVG 1.1//EN" "http://www.w3.org/Graphics/SVG/1.1/DTD/svg11.dtd">
<svg version="1.1" id="Layer_1" xmlns="http://www.w3.org/2000/svg" xmlns:xlink="http://www.w3.org/1999/xlink" x="0px" y="0px"
	 width="100px" height="100px" viewBox="0 0 100 100" enable-background="new 0 0 100 100" xml:space="preserve">
<g>
	<g>
		<path d="M90.246,10.474c-26.61,0-53.221,0-79.831,0c-9.673,0-9.673,15,0,15c26.61,0,53.221,0,79.831,0
			C99.919,25.474,99.919,10.474,90.246,10.474L90.246,10.474z"/>
	</g>
</g>
<g>
	<g>
		<path d="M89.805,74.965c-26.61,0-53.22,0-79.83,0c-9.673,0-9.673,15,0,15c26.61,0,53.22,0,79.83,0
			C99.478,89.965,99.478,74.965,89.805,74.965L89.805,74.965z"/>
	</g>
</g>
<g>
	<g>
		<path d="M90.246,43.474c-26.61,0-53.221,0-79.831,0c-9.673,0-9.673,15,0,15c26.61,0,53.221,0,79.831,0
			C99.919,58.475,99.919,43.474,90.246,43.474L90.246,43.474z"/>
	</g>
</g>
</svg>
